<?xml version="1.0" encoding="UTF-8"?>
<svg xmlns="http://www.w3.org/2000/svg" style="display:none;">
  <symbol id="icon-home" viewBox="0 0 24 24">
    <path d="M3 11l9-7 9 7v9a1 1 0 0 1-1 1h-5v-6h-6v6h-5a1 1 0 0 1-1-1z" />
  </symbol>
  <symbol id="icon-book-open" viewBox="0 0 24 24">
    <path d="M3 5v14l7-4 7 4V5L10 9z" />
  </symbol>
  <symbol id="icon-tools" viewBox="0 0 24 24">
    <path d="M5 16l6-6 7 7-6 6z" />
  </symbol>
  <symbol id="icon-layers" viewBox="0 0 24 24">
    <path d="M2 7l10-5 10 5-10 5zM2 12l10-5 10 5-10 5zM2 17l10-5 10 5-10 5z" />
  </symbol>
  <symbol id="icon-users" viewBox="0 0 24 24">
    <path d="M16 7a3 3 0 1 1-3 3 3 3 0 0 1 3-3zm-8 0a3 3 0 1 1-3 3 3 3 0 0 1 3-3zm0 6c-3 0-5 1-5 3v1h10v-1c0-2-2-3-5-3zm8 0c-2.7 0-4 1.3-4 3v1h8v-1c0-1.7-1.3-3-4-3z" />
  </symbol>
</svg>
